<?xml version="1.0" encoding="UTF-8" standalone="no"?>
<svg
   data-name="Layer 1"
   width="1105.0353"
   height="782.7464"
   viewBox="0 0 1105.0352 782.74641"
   version="1.1"
   id="svg346"
   sodipodi:docname="50f963990dbd98d1d3d15d9c76005f9b.svg"
   xmlns:inkscape="http://www.inkscape.org/namespaces/inkscape"
   xmlns:sodipodi="http://sodipodi.sourceforge.net/DTD/sodipodi-0.dtd"
   xmlns:xlink="http://www.w3.org/1999/xlink"
   xmlns="http://www.w3.org/2000/svg"
   xmlns:svg="http://www.w3.org/2000/svg">
  <sodipodi:namedview
     id="namedview348"
     pagecolor="#ffffff"
     bordercolor="#666666"
     borderopacity="1.0"
     inkscape:pageshadow="2"
     inkscape:pageopacity="0.0"
     inkscape:pagecheckerboard="0" />
  <defs
     id="defs10">
    <linearGradient
       id="ac3cc305-f6db-42f4-bbbd-32121ee27a74-742"
       x1="403.57001"
       y1="833.5"
       x2="403.57001"
       y2="218.16"
       gradientUnits="userSpaceOnUse">
      <stop
         offset="0"
         stop-color="gray"
         stop-opacity="0.25"
         id="stop2" />
      <stop
         offset="0.54"
         stop-color="gray"
         stop-opacity="0.12"
         id="stop4" />
      <stop
         offset="1"
         stop-color="gray"
         stop-opacity="0.1"
         id="stop6" />
    </linearGradient>
    <linearGradient
       id="ad14f186-b27f-416c-b629-0bafa2f1236e-743"
       x1="940.66998"
       y1="825.71997"
       x2="940.66998"
       y2="263.72"
       xlink:href="#ac3cc305-f6db-42f4-bbbd-32121ee27a74-742"
       gradientTransform="translate(-47.234763,-58.623646)" />
    <linearGradient
       inkscape:collect="always"
       xlink:href="#ac3cc305-f6db-42f4-bbbd-32121ee27a74-742"
       id="linearGradient350"
       gradientUnits="userSpaceOnUse"
       x1="403.57001"
       y1="833.5"
       x2="403.57001"
       y2="218.16"
       gradientTransform="translate(-47.234763,-58.623646)" />
  </defs>
  <title
     id="title12">medicine</title>
  <ellipse
     cx="367.38525"
     cy="766.65637"
     rx="97.440002"
     ry="15.65"
     fill="#6c63ff"
     opacity="0.1"
     id="ellipse14" />
  <ellipse
     cx="897.05524"
     cy="767.09637"
     rx="121.59"
     ry="15.65"
     fill="#6c63ff"
     opacity="0.1"
     id="ellipse16" />
  <path
     d="M 13.845237,338.20635 H 115.33524 v 138.33 H 21.275237 c -0.25,1.42 -0.49,2.85 -0.75,4.28 h 94.810003 v 111.56 c -0.17,-0.05 -0.32,-0.11 -0.48,-0.17 -2.68,-1.06 -5.34,-2.18 -8,-3.38 l -1.7,-0.77 q -4,-1.89 -8.000003,-4 c -0.93,-0.49 -1.86,-1 -2.78,-1.52 a 166.42,166.42 0 0 1 -39.88,-31.16 c -0.34,-0.33 -0.66,-0.68 -1,-1 -1.62,-1.76 -3.21,-3.54 -4.75,-5.36 l -1.7,-2 c -1.82,-2.23 -3.58,-4.52 -5.29,-6.84 -0.25,-0.34 -0.49,-0.68 -0.75,-1 a 148.88,148.88 0 0 1 -17.2,-31.1 c -0.14,-0.33 -0.26,-0.69 -0.39,-1 q -2.06,-5.3 -3.65,-10.7 c -0.46,-1.51 -0.9,-3 -1.28,-4.57 -0.14,-0.46 -0.26,-0.91 -0.37,-1.36 -5.68,-22.17 -6.35,-45.2 -6.35,-68.07 0,-2.67 0,-5.35 0,-8 0,-9.25 0.11,-18.56 0.27,-27.86 0,-2.41 0.1,-4.81 0.15,-7.23 q 0.21,-9.21 0.6,-18.42 c 0.06,-1.71 0.14,-3.41 0.23,-5.11 q 0,-1.47 0.15,-2.94 c 0.24,-3.56 0.44,-7.09 0.68,-10.61 z"
     fill="#6c63ff"
     opacity="0.1"
     id="path18" />
  <path
     d="M 115.33524,184.18635 H 59.665237 a 422,422 0 0 1 29.61,-40.76 c 8.27,-10.16 17.000003,-20.06 26.060003,-29.6 z"
     fill="#6c63ff"
     opacity="0.1"
     id="path20" />
  <path
     d="m 115.33524,188.46635 v 145.46 H 14.165237 c 0,-0.42 0.07,-0.85 0.1,-1.27 0.09,-1.15 0.18,-2.3 0.28,-3.44 0.11,-1.34 0.23,-2.69 0.36,-4 0.13,-1.31 0.27,-2.91 0.42,-4.36 0.15,-1.45 0.29,-2.92 0.46,-4.37 0.17,-1.45 0.32,-2.9 0.5,-4.34 0.18,-1.44 0.34,-2.9 0.53,-4.34 0.15,-1.2 0.31,-2.39 0.47,-3.59 0.23,-1.69 0.47,-3.39 0.73,-5.07 0,-0.25 0.07,-0.51 0.11,-0.75 a 345.9,345.9 0 0 1 7.45,-36.52 270.08,270.08 0 0 1 12.55,-37 277.75,277.75 0 0 1 18.88,-36.36 z"
     fill="#6c63ff"
     opacity="0.1"
     id="path22" />
  <path
     d="m 139.56524,338.19635 v 138.34 h 216.77 v -138.34 z m 0,142.61 v 118.8 c 1.24,0.26 2.47,0.51 3.69,0.72 1.66,0.32 3.31,0.61 5,0.86 0.32,0.05 0.65,0.1 1,0.13 0.66,0.11 1.34,0.2 2,0.29 1.67,0.23 3.33,0.42 5,0.57 0.79,0.08 1.59,0.15 2.39,0.21 l 1.93,0.15 v 0 c 1.05,0.08 2.09,0.14 3.12,0.17 0.64,0 1.28,0.06 1.94,0.08 0.5,0 1,0 1.52,0 0.52,0 1.26,0 1.89,0 0.86,0 1.72,0 2.57,0 h 1.15 c 0.86,0 1.72,0 2.57,-0.08 h 0.06 c 0.59,0 1.19,0 1.79,-0.08 a 4.19,4.19 0 0 0 0.5,0 c 0.5,0 1,0 1.48,-0.07 h 0.35 l 3.35,-0.26 c 1.1,-0.1 2.21,-0.23 3.33,-0.35 l 2.28,-0.27 a 199.45,199.45 0 0 0 27.45,-5.84 c 20.22,-5.64 40,-13.53 60.21,-19.31 26.13,-7.45 55,-11.11 80.25,-2 v -93.72 z m 216.77,-296.62 V 0.01635364 a 278.67,278.67 0 0 0 -70.43,8.25999996 c -54.89,13.7900004 -104.14,43.7000004 -146.34,81.9000004 v 93.999996 h 10.88 v 4.27 h -10.88 v 145.48 h 216.77 v -145.47 h -161.22 v -4.27 z m 278.43,-62.21 c -13.58,-0.48 -27.08,-4.78 -39.29,-11.42 -23.35,-12.699996 -42,-32.309996 -62.84,-48.859996 -43.3,-34.47 -97,-55.2700004 -152.09,-60.4300004 V 184.18635 h 309.45 l 0.77,-0.81 z m 28.19,-5 29.89,32.8 v -41.4 c -10.01,1.24 -18.78,4.19 -29.85,8.56 z m 29.89,512.13 v -148.3 h -63.69 c -0.17,-0.63 -0.34,-1.27 -0.54,-1.91 0.19,0.64 0.35,1.28 0.53,1.91 h -248.56 v 107.25 c 2.36,1.75 4.69,3.59 7,5.46 v 0 c 2.49,2 4.95,4.11 7.42,6.18 l 2.49,2.06 c 1.19,1 2.39,2 3.6,2.94 q 3.6,2.92 7.27,5.76 c 1.21,1 2.45,1.9 3.68,2.84 a 501.22,501.22 0 0 0 61.63,40.31 q 7.23,4 14.59,7.81 c 3.27,1.67 6.56,3.33 9.86,4.94 q 7.44,3.63 15,7 v 0 a 550.84,550.84 0 0 0 146,42.53 q 16.79,2.48 33.71,3.9 v -90.69 h 1 z m -312.26,-440.65 v 145.47 h 312.3 v -145.47 z m 0,149.74 v 138.34 h 312.3 v -138.34 z m 336.54,-230 v 46.18 l 38.15,-41.86 q -18.96,-3.06 -38.15,-4.37 z m 0,230.05 v 138.29 h 303.74996 v -138.34 z m 302.63996,301.84 1.07,-159.28 H 717.12524 v 240.57 a 544.73,544.73 0 0 0 58.7,-0.7 v 0 h 0.34 q 14,-0.88 27.87,-2.56 h 0.21 a 513.24,513.24 0 0 0 143.2,-38.21 m 131.99996,-318.93 c -1.14,-2.69 -2.33,-5.36 -3.54,-8 -2.26,-5 -4.65,-9.86 -7.11,-14.72 h -23.7 v 138.28 h 59.92 c -0.03,-39.16 -9.94,-79.16 -25.54,-115.61 z m -34.35,119.88 v 137 c 16.88,-16.18 31.14,-34.69 41.41,-55.85 12.35,-25.48 18,-53.07 18.46,-81.17 z m 0,-182.92 v 36 h 21.48 a 390,390 0 0 0 -21.45,-36.05 z m -205.99996,-162.6 c -1.58,-0.6 -3.16,-1.21 -4.75,-1.8 a 433.62,433.62 0 0 0 -51.31,-15.42 l -58.38,64.07 v 0 l -1.12,1.19 0.75,0.82 h 207.78 a 444.41,444.41 0 0 0 -92.94,-48.91 z m 99.06,53.17 h -216.77 l -4.26,3.9 v 141.52 h 37.34 0.06 v 0 h 266.38996 v -68.55 a 432.8,432.8 0 0 0 -82.72996,-76.92 z"
     fill="#6c63ff"
     opacity="0.1"
     id="path24" />
  <path
     d="m 115.33524,261.83635 v 72.09 H 14.165237 c 0,-0.42 0.07,-0.85 0.1,-1.27 0.09,-1.15 0.18,-2.3 0.28,-3.44 0.11,-1.34 0.23,-2.69 0.36,-4 0.13,-1.31 0.27,-2.91 0.42,-4.36 0.15,-1.45 0.29,-2.92 0.46,-4.37 0.17,-1.45 0.32,-2.9 0.5,-4.34 0.18,-1.44 0.34,-2.9 0.53,-4.34 0.15,-1.2 0.31,-2.39 0.47,-3.59 0.23,-1.69 0.47,-3.39 0.73,-5.07 0,-0.25 0.07,-0.51 0.11,-0.75 a 345.9,345.9 0 0 1 7.45,-36.52 z"
     fill="#6c63ff"
     opacity="0.1"
     id="path26" />
  <path
     d="M 13.845237,338.20635 H 115.33524 v 138.33 H 21.275237 c -0.25,1.42 -0.49,2.85 -0.75,4.28 h 94.810003 v 111.56 c -0.17,-0.05 -0.32,-0.11 -0.48,-0.17 -2.68,-1.06 -5.34,-2.18 -8,-3.38 l -1.7,-0.77 q -4,-1.89 -8.000003,-4 c -0.93,-0.49 -1.86,-1 -2.78,-1.52 a 166.42,166.42 0 0 1 -39.88,-31.16 c -0.34,-0.33 -0.66,-0.68 -1,-1 -1.62,-1.76 -3.21,-3.54 -4.75,-5.36 l -1.7,-2 c -1.82,-2.23 -3.58,-4.52 -5.29,-6.84 -0.25,-0.34 -0.49,-0.68 -0.75,-1 a 148.88,148.88 0 0 1 -17.2,-31.1 c -0.14,-0.33 -0.26,-0.69 -0.39,-1 q -2.06,-5.3 -3.65,-10.7 c -0.46,-1.51 -0.9,-3 -1.28,-4.57 -0.14,-0.46 -0.26,-0.91 -0.37,-1.36 -5.68,-22.17 -6.35,-45.2 -6.35,-68.07 0,-2.67 0,-5.35 0,-8 0,-9.25 0.11,-18.56 0.27,-27.86 0,-2.41 0.1,-4.81 0.15,-7.23 q 0.21,-9.21 0.6,-18.42 c 0.06,-1.71 0.14,-3.41 0.23,-5.11 q 0,-1.47 0.15,-2.94 c 0.24,-3.56 0.44,-7.09 0.68,-10.61 z"
     fill="#6c63ff"
     opacity="0.1"
     id="path28" />
  <polygon
     points="139.56,333.92 139.56,209.28 150.44,209.28 150.44,167.08 195.1,167.08 195.1,209.28 215.87,209.28 215.87,333.92 "
     fill="#6c63ff"
     opacity="0.1"
     id="polygon30"
     transform="translate(0.00523657,0.00635364)" />
  <rect
     x="139.57524"
     y="338.19635"
     width="76.300003"
     height="138.33"
     fill="#6c63ff"
     opacity="0.1"
     id="rect32" />
  <path
     d="m 139.56524,480.81635 h 76.31 v 115 a 199.11,199.11 0 0 1 -27.45,5.83 l -2.28,0.28 c -1.12,0.13 -2.23,0.24 -3.33,0.35 -1.1,0.11 -2.24,0.19 -3.35,0.26 h -0.35 c -0.48,0 -1,0.06 -1.47,0.07 h -0.51 c -0.6,0 -1.2,0.06 -1.8,0.08 v 0 c -0.85,0.05 -1.7,0.06 -2.57,0.07 -0.37,0 -0.72,0 -1.09,0 -0.86,0 -1.71,0 -2.57,0 h -1.89 c -0.51,0 -1,0 -1.53,0 l -1.93,-0.07 c -1,0 -2.08,-0.11 -3.12,-0.18 v 0 l -1.92,-0.14 -2.39,-0.22 c -1.68,-0.15 -3.35,-0.34 -5,-0.57 l -2,-0.28 -1,-0.14 c -1.67,-0.26 -3.32,-0.54 -5,-0.86 -1.23,-0.21 -2.45,-0.47 -3.69,-0.72 z"
     fill="#6c63ff"
     opacity="0.1"
     id="path34" />
  <rect
     x="629.96527"
     y="194.56635"
     width="62.919998"
     height="139.35001"
     fill="#6c63ff"
     opacity="0.1"
     id="rect36" />
  <polygon
     points="380.58,476.53 380.58,416.86 546.93,416.86 546.93,452.06 629.96,452.06 629.96,338.19 692.89,338.19 692.89,476.53 "
     fill="#6c63ff"
     opacity="0.1"
     id="polygon38"
     transform="translate(0.00523657,0.00635364)" />
  <path
     d="m 693.88524,629.13635 h -1 v 90.75 q -16.9,-1.43 -33.7,-3.89 a 550.87,550.87 0 0 1 -146.06,-42.62 q -20.13,-9.06 -39.44,-19.78 a 503.26,503.26 0 0 1 -61.64,-40.31 q -7.36,-5.64 -14.53,-11.54 c -3.31,-2.73 -6.6,-5.53 -9.93,-8.25 -2.31,-1.87 -4.64,-3.71 -7,-5.47 v -107.21 h 248.55 c -0.17,-0.64 -0.34,-1.28 -0.52,-1.91 0.19,0.63 0.37,1.27 0.54,1.91 h 63.73 v 148.26 c 0.34,0.01 0.67,0.04 1,0.06 z"
     fill="#6c63ff"
     opacity="0.1"
     id="path40" />
  <path
     d="m 856.98524,184.18635 h -41 v -12.74 h 18.38 v -37.95 q 2.39,0.87 4.76,1.79 v 36.16 h 17.86 z"
     fill="#6c63ff"
     opacity="0.1"
     id="path42" />
  <path
     d="m 955.76524,333.92635 h -201.28 c 0,0 0,0 0.07,0.05 l -0.09,-0.05 h -37.34 v -139.35 h 10.58 v 103 h 48.35 v -61 h 39.94 v -48.11 h 41 v 48.15 h 39.94 v 61 h 58.83 z"
     fill="#6c63ff"
     opacity="0.1"
     id="path44" />
  <path
     d="m 717.12524,338.19635 v 138.34 h 238.64 v -138.34 z m 303.41996,301.18 0.33,-109.5 h -65.10996 v -49 h -238.64 v 240.5 a 544.73,544.73 0 0 0 58.7,-0.7 v 0 h 0.34 q 14,-0.88 27.87,-2.56 h 0.21 a 513.24,513.24 0 0 0 143.2,-38.21"
     fill="#6c63ff"
     opacity="0.1"
     id="path46" />
  <path
     d="m 1049.3352,480.81635 h 55.67 c -0.49,28.09 -6.13,55.68 -18.47,81.16 -10.27,21.17 -24.54,39.68 -41.4,55.85 v -88 h 4.2 z"
     fill="#6c63ff"
     opacity="0.1"
     id="path48" />
  <path
     d="m 1105.0352,476.53635 h -55.7 v -115.61 h 30.14 c 15.6,36.45 25.51,76.45 25.56,115.61 z"
     fill="#6c63ff"
     opacity="0.1"
     id="path50" />
  <rect
     x="659.18524"
     y="233.30635"
     width="33.709999"
     height="43.689999"
     fill="#6c63ff"
     opacity="0.1"
     id="rect52" />
  <rect
     x="659.18524"
     y="323.86633"
     width="33.709999"
     height="10.06"
     fill="#6c63ff"
     opacity="0.1"
     id="rect54" />
  <rect
     x="659.18524"
     y="338.19635"
     width="33.709999"
     height="29.35"
     fill="#6c63ff"
     opacity="0.1"
     id="rect56" />
  <rect
     x="659.18524"
     y="414.42636"
     width="33.709999"
     height="43.689999"
     fill="#6c63ff"
     opacity="0.1"
     id="rect58" />
  <rect
     x="659.18524"
     y="504.98636"
     width="33.709999"
     height="43.689999"
     fill="#6c63ff"
     opacity="0.1"
     id="rect60" />
  <path
     d="m 692.88524,629.07635 c 0.34,0 0.67,0 1,0.06 h -1 v 10.15 h -33.7 v -43.74 h 33.7 z"
     fill="#6c63ff"
     opacity="0.1"
     id="path62" />
  <path
     d="m 692.88524,686.08635 v 33.75 q -16.9,-1.43 -33.7,-3.89 v -29.86 z"
     fill="#6c63ff"
     opacity="0.1"
     id="path64" />
  <rect
     x="380.58524"
     y="473.32635"
     width="144.47"
     height="3.21"
     fill="#6c63ff"
     opacity="0.1"
     id="rect66" />
  <rect
     x="380.58524"
     y="480.80634"
     width="144.47"
     height="12.3"
     fill="#6c63ff"
     opacity="0.1"
     id="rect68" />
  <rect
     x="380.58524"
     y="533.42633"
     width="144.47"
     height="19.780001"
     fill="#6c63ff"
     opacity="0.1"
     id="rect70" />
  <path
     d="m 525.04524,593.52635 v 19.78 h -113 q -7.36,-5.62 -14.54,-11.54 c -3.31,-2.73 -6.59,-5.53 -9.93,-8.24 z"
     fill="#6c63ff"
     opacity="0.1"
     id="path72" />
  <path
     d="m 525.04524,653.61635 v 19.76 h -11.93 q -20.11,-9.07 -39.43,-19.79 z"
     fill="#6c63ff"
     opacity="0.1"
     id="path74" />
  <rect
     x="775.83527"
     y="351.60635"
     width="28.440001"
     height="28.440001"
     fill="#6c63ff"
     opacity="0.1"
     id="rect76" />
  <rect
     x="160.05524"
     y="219.09634"
     width="28.440001"
     height="28.440001"
     fill="#6c63ff"
     opacity="0.1"
     id="rect78" />
  <rect
     x="160.05524"
     y="285.15634"
     width="28.440001"
     height="28.440001"
     fill="#6c63ff"
     opacity="0.1"
     id="rect80" />
  <rect
     x="160.05524"
     y="351.21634"
     width="28.440001"
     height="28.440001"
     fill="#6c63ff"
     opacity="0.1"
     id="rect82" />
  <rect
     x="160.05524"
     y="417.26636"
     width="28.440001"
     height="28.440001"
     fill="#6c63ff"
     opacity="0.1"
     id="rect84" />
  <rect
     x="160.05524"
     y="483.32635"
     width="28.440001"
     height="28.440001"
     fill="#6c63ff"
     opacity="0.1"
     id="rect86" />
  <rect
     x="160.05524"
     y="549.38635"
     width="28.440001"
     height="28.440001"
     fill="#6c63ff"
     opacity="0.1"
     id="rect88" />
  <rect
     x="884.40527"
     y="351.60635"
     width="28.440001"
     height="28.440001"
     fill="#6c63ff"
     opacity="0.1"
     id="rect90" />
  <rect
     x="775.83527"
     y="421.75635"
     width="28.440001"
     height="28.440001"
     fill="#6c63ff"
     opacity="0.1"
     id="rect92" />
  <rect
     x="884.40527"
     y="421.75635"
     width="28.440001"
     height="28.440001"
     fill="#6c63ff"
     opacity="0.1"
     id="rect94" />
  <rect
     x="775.83527"
     y="491.89636"
     width="28.440001"
     height="28.440001"
     fill="#6c63ff"
     opacity="0.1"
     id="rect96" />
  <rect
     x="884.40527"
     y="491.89636"
     width="28.440001"
     height="28.440001"
     fill="#6c63ff"
     opacity="0.1"
     id="rect98" />
  <rect
     x="775.83527"
     y="562.04633"
     width="28.440001"
     height="28.440001"
     fill="#6c63ff"
     opacity="0.1"
     id="rect100" />
  <rect
     x="884.40527"
     y="562.04633"
     width="28.440001"
     height="28.440001"
     fill="#6c63ff"
     opacity="0.1"
     id="rect102" />
  <rect
     x="775.83527"
     y="632.19635"
     width="28.440001"
     height="28.440001"
     fill="#6c63ff"
     opacity="0.1"
     id="rect104" />
  <rect
     x="884.40527"
     y="632.19635"
     width="28.440001"
     height="28.440001"
     fill="#6c63ff"
     opacity="0.1"
     id="rect106" />
  <polygon
     points="804.26,702.33 804.26,718.06 775.83,720.67 775.83,702.33 "
     fill="#6c63ff"
     opacity="0.1"
     id="polygon108"
     transform="translate(0.00523657,0.00635364)" />
  <path
     d="m 18.005237,298.37635 v 16.27 h 97.330003 v -16.27 z m 9.7,15.25 h -7.94 v -14.25 h 8 z m 9.69,0 h -8 v -14.25 h 8 z m 9.67,0 h -8 v -14.25 h 8 z m 9.69,0 h -7.99 v -14.25 h 8 z m 9.68,0 h -8 v -14.25 h 8 z m 9.69,0 h -8 v -14.25 h 8 z m 9.69,0 h -8 v -14.25 h 8 z m 9.68,0 h -8 v -14.25 h 8 z m 9.680003,0 h -8.000003 v -14.25 h 8.000003 z m 9.68,0 h -8 v -14.25 h 8 z"
     fill="#6c63ff"
     opacity="0.1"
     id="path110" />
  <path
     d="m 18.005237,345.71635 v 16.27 h 97.330003 v -16.27 z m 9.7,15.24 h -7.94 v -14.21 h 8 z m 9.69,0 h -8 v -14.21 h 8 z m 9.67,0 h -8 v -14.21 h 8 z m 9.69,0 h -7.99 v -14.21 h 8 z m 9.68,0 h -8 v -14.21 h 8 z m 9.69,0 h -8 v -14.21 h 8 z m 9.69,0 h -8 v -14.21 h 8 z m 9.68,0 h -8 v -14.21 h 8 z m 9.680003,0 h -8.000003 v -14.21 h 8.000003 z m 9.68,0 h -8 v -14.21 h 8 z"
     fill="#6c63ff"
     opacity="0.1"
     id="path112" />
  <path
     d="m 18.005237,393.07635 v 16.3 h 97.330003 v -16.3 z m 9.7,15.24 h -7.94 v -14.22 h 8 z m 9.69,0 h -8 v -14.22 h 8 z m 9.67,0 h -8 v -14.22 h 8 z m 9.69,0 h -7.99 v -14.22 h 8 z m 9.68,0 h -8 v -14.22 h 8 z m 9.69,0 h -8 v -14.22 h 8 z m 9.69,0 h -8 v -14.22 h 8 z m 9.68,0 h -8 v -14.22 h 8 z m 9.680003,0 h -8.000003 v -14.22 h 8.000003 z m 9.68,0 h -8 v -14.22 h 8 z"
     fill="#6c63ff"
     opacity="0.1"
     id="path114" />
  <path
     d="m 18.005237,440.43635 v 16.25 h 97.330003 v -16.25 z m 9.7,15.24 h -7.94 v -14.23 h 8 z m 9.69,0 h -8 v -14.23 h 8 z m 9.67,0 h -8 v -14.23 h 8 z m 9.69,0 h -7.99 v -14.23 h 8 z m 9.68,0 h -8 v -14.23 h 8 z m 9.69,0 h -8 v -14.23 h 8 z m 9.69,0 h -8 v -14.23 h 8 z m 9.68,0 h -8 v -14.23 h 8 z m 9.680003,0 h -8.000003 v -14.23 h 8.000003 z m 9.68,0 h -8 v -14.23 h 8 z"
     fill="#6c63ff"
     opacity="0.1"
     id="path116" />
  <path
     d="m 18.425237,487.78635 c 0.39,1.53 0.83,3.06 1.29,4.57 v -3.55 h 8 v 14.22 h -4.28 c 0.13,0.33 0.26,0.69 0.39,1 h 91.510003 v -16.24 z m 19,15.24 h -8 v -14.22 h 8 z m 9.67,0 h -8 v -14.22 h 8 z m 9.69,0 h -8.02 v -14.22 h 8 z m 9.68,0 h -8 v -14.22 h 8 z m 9.69,0 h -8 v -14.22 h 8 z m 9.69,0 h -8 v -14.22 h 8 z m 9.68,0 h -8 v -14.22 h 8 z m 9.680003,0 h -8.000003 v -14.22 h 8.000003 z m 9.68,0 h -8 v -14.22 h 8 z"
     fill="#6c63ff"
     opacity="0.1"
     id="path118" />
  <path
     d="m 41.025237,535.14635 c 0.25,0.32 0.49,0.68 0.75,1 h 5.29 v 6.83 c 0.57,0.68 1.13,1.36 1.71,2 v -8.87 h 8 v 14.27 h -3.24 c 0.32,0.33 0.63,0.68 1,1 h 60.830003 v -16.23 z m 25.41,15.23 h -8 v -14.21 h 8 z m 9.69,0 h -8 v -14.21 h 8 z m 9.69,0 h -8 v -14.21 h 8 z m 9.68,0 h -8 v -14.21 h 8 z m 9.680003,0 h -8.000003 v -14.21 h 8.000003 z m 9.68,0 h -8 v -14.21 h 8 z"
     fill="#6c63ff"
     opacity="0.1"
     id="path120" />
  <path
     d="m 94.415237,582.49635 c 0.91,0.52 1.84,1 2.78,1.52 v -0.5 h 8.000003 v 4.5 l 1.7,0.79 v -5.29 h 8 v 8.65 a 2.5,2.5 0 0 0 0.48,0.18 v -9.85 z"
     fill="#6c63ff"
     opacity="0.1"
     id="path122" />
  <path
     d="m 754.48524,333.92635 v 0 h 0.06 z m -61.6,295.14 v 0 h 1 z m -64.27,-150.17 c 0.19,0.64 0.35,1.28 0.53,1.91 v 0 c -0.16,-0.63 -0.33,-1.27 -0.53,-1.91 z m 125.87,-145 v 0 h 0.06 z m -604,-149.74 v 4.27 h 44.67 v -4.27 z m 542.4,444.91 v 0 h 1 z m -64.27,-150.17 c 0.19,0.64 0.35,1.28 0.53,1.91 v 0 c -0.16,-0.63 -0.33,-1.27 -0.53,-1.91 z m 125.87,-145 v 0 h 0.06 z m -61.6,295.14 v 0 h 1 z m -64.27,-150.14 c 0.19,0.64 0.35,1.28 0.53,1.91 v 0 c -0.16,-0.63 -0.33,-1.27 -0.53,-1.91 z"
     fill="#6c63ff"
     opacity="0.1"
     id="path124" />
  <path
     d="m 461.60524,379.67635 c 0,0 -3.94,-0.55 -3.94,-6.29 0,-5.74 -2.82,-16.46 -2.82,-16.46 v 0 c 0,-0.05 -2.44,-18.67 -5.81,-21.63 -3.37,-2.96 -7.7,-20.34 -7.7,-20.34 0,0 -0.74,-9.43 -2.25,-11.46 -1.51,-2.03 -3.55,-7 -6.56,-14.09 -3.01,-7.09 -15.56,-12 -15.56,-12 0,0 -22.69,-13.16 -29.12,-17.45 v 0 a 9.86,9.86 0 0 1 -1.63,-1.23 c -1.12,-1.47 -6,-1.5 -6,-1.5 -0.51,-3.22 -1,-6.92 -1.16,-10.27 0,-0.36 0,-0.72 -0.05,-1.08 a 34.6,34.6 0 0 0 15.21,-18.82 c 0.12,-0.38 0.22,-0.78 0.33,-1.16 a 3.25,3.25 0 0 0 1.95,-1.76 c 0.58,-1.29 0.59,-2.8 1.31,-4 0.84,-1.42 2.44,-2.18 3.7,-3.25 3.18,-2.7 4,-7.25 3.85,-11.39 -0.1,-3.35 -0.64,-6.73 -0.43,-10.06 l 0.06,-0.84 c 0.06,-0.5 0.13,-1 0.22,-1.48 0.49,-2.48 1.56,-4.82 2.16,-7.28 0.6,-2.46 0.66,-5.23 -0.74,-7.35 -2.05,-3.11 -6.32,-3.73 -10.07,-4.05 -4.25,-0.36 -8.05,0.11 -10.77,-3.42 a 38.39,38.39 0 0 0 -4.28,-5.17 c -0.56,-0.52 -6,-3.84 -6,-4.06 a 24.31,24.31 0 0 0 -16.95,-1.3 c -2.82,0.82 -5.48,2.16 -8.34,2.83 -6.17,1.46 -13.27,-0.12 -18.51,3.41 -2.92,2 -4.67,5.18 -6.31,8.28 q -2,3.83 -4.06,7.65 c -2.21,4.19 -4.46,8.45 -5.39,13.09 a 20.78,20.78 0 0 0 -0.36,3.06 v 0 0.05 c 0,0.37 0,0.74 0,1.11 v 0.47 c 0,0.35 0,0.69 0.06,1 0.06,0.31 0.05,0.41 0.08,0.62 0.03,0.21 0.08,0.68 0.14,1 0.06,0.32 0.18,0.88 0.3,1.32 0.05,0.19 0.12,0.37 0.18,0.55 0.1,0.34 0.22,0.67 0.35,1 0.07,0.17 0.14,0.35 0.22,0.52 0.15,0.35 0.33,0.69 0.51,1 0.08,0.14 0.14,0.27 0.22,0.4 a 13.27,13.27 0 0 0 0.92,1.34 c 2.14,2.67 5.29,4.37 7.62,6.87 0,0.1 0,0.2 0,0.29 0,0.28 0,0.55 0,0.83 a 34.23,34.23 0 0 0 15.58,27.95 c 0,0.38 0.05,0.77 0.07,1.15 a 57.22,57.22 0 0 1 -0.11,8.91 4.2,4.2 0 0 0 -3.32,-1.48 4.79,4.79 0 0 0 -1.28,0.11 l -0.09,-0.07 v 0 0.09 c -2.2,0.54 -4.91,2.83 -7.5,9.34 0,0 -7.88,8.88 -13.88,8.51 -6,-0.37 -21.19,9.24 -21.19,9.24 0,0 -14.82,9.62 -18,19.42 a 136.86,136.86 0 0 1 -6.38,16.28 l -18.32,37.75 v 0 l -3.38,29.95 c 0,0 1.87,13.32 1.5,15.35 -0.37,2.03 7.69,20.34 7.69,20.34 0,0 26.63,46.79 37.51,49.19 l 0.78,-0.55 a 6.38,6.38 0 0 0 1.47,0.55 l 2.24,-1.58 a 24.41,24.41 0 0 1 -0.17,5.28 c -1.5,4.62 0.56,34.77 3.18,40.68 2.62,5.91 1.69,83.4 1.69,83.4 l -0.37,6.84 c 0,0 0,0.22 0.09,0.6 l -0.09,1.62 0.27,0.14 a 19.26,19.26 0 0 1 -0.27,6.51 c -0.94,3 -1.32,11.48 -1.32,11.48 0,0 -7.49,47.88 -3.94,57.5 3.55,9.62 6.57,20.16 6.57,20.16 0,0 3.75,12 0.18,14.05 -3.57,2.05 -13.72,5.49 -11.63,10.49 1.9,4.62 9.11,17 10.18,18.81 l -0.09,0.95 -1.47,15.93 a 20,20 0 0 0 1.69,6.08 c 1.61,3.47 4.74,7.07 10.69,6.68 1,-0.07 2.16,-0.19 3.28,-0.34 10.89,-1.46 24.3,-6.32 24.3,-6.32 a 9.91,9.91 0 0 1 -1.9,-1.57 v 0 a 5.49,5.49 0 0 1 -1.67,-4 c 0.16,-2.9 -5.27,-16.72 -6.62,-20.12 -0.21,-0.49 -0.32,-0.77 -0.32,-0.77 0,0 12.38,-12.94 10.32,-24.41 0,0 -13.7,-8 -9.19,-12.39 4.51,-4.39 12.57,-17 12.57,-17 0,0 0.37,-47.15 0,-54.19 a 58.3,58.3 0 0 1 0.69,-14.63 c 0.15,-0.73 0.33,-1.44 0.52,-2.14 a 130.55,130.55 0 0 0 18.84,1.43 c 2.3,0 4.64,0 7,-0.14 q 0,1 0.09,2.16 c 0.52,11.68 1.49,32.16 2.28,39.77 1.12,10.91 7.31,40.31 7.31,40.31 0,0 -11.81,7.58 2.06,26.26 0,0 0,6.77 -0.92,7.75 v 0 a 84.78,84.78 0 0 0 -2.37,9.76 c -0.58,3.52 -0.82,7.08 0.12,8.93 2.25,4.42 15.75,4.06 15.75,4.06 v 0 l 0.33,-0.06 a 19.35,19.35 0 0 1 14.29,4.31 c 5.13,4.12 24.6,2.31 35.14,1 4.13,-0.52 6.89,-1 6.89,-1 a 4,4 0 0 0 0.14,-1.44 v 0 c -0.11,-2.59 -2.14,-8.27 -15.9,-13.34 0,0 -12.94,-8.7 -12.76,-16.28 h -0.27 -1.5 c 1.09,-0.06 1.79,0 1.79,0 0,0 -5.07,-18.5 -3,-20 2.07,-1.5 -4.13,-22 -4.13,-22 0,0 -3.55,-34.4 -3.74,-36.81 a 21,21 0 0 1 0.93,-6.1 l -0.93,-18.86 c 0,0 -0.18,-6.27 0,-8.31 a 41.5,41.5 0 0 0 -0.43,-5.29 c -0.09,-0.7 -0.18,-1.43 -0.28,-2.15 4.85,-1.23 8,-2.37 8,-2.37 l -0.56,-65.65 c 4.12,-8 4.88,-25.55 4.86,-38 0,-8 -0.36,-13.92 -0.36,-13.92 l 5.63,-9.19 c 0,0 1.3,-11 -0.76,-13.41 -0.91,-1.09 -0.5,-2.22 0.25,-3.15 a 10.46,10.46 0 0 1 1.23,-0.84 c 0,0 -0.06,-0.09 -0.13,-0.22 a 9.94,9.94 0 0 1 1.25,-0.89 c 0,0 -2,-3.1 -0.21,-4.41 1.68,1.14 3.18,2 4.32,2.7 -0.08,0.73 -0.16,1.15 -0.16,1.15 l 0.48,-1 c 1.1,0.62 1.77,1 1.77,1 0,0 8.82,-17.57 8.63,-20.16 -0.19,-2.59 6,-13.5 6,-13.5 0,0 0.75,-5.73 4.13,-8.13 3.38,-2.4 2.62,-19.79 2.62,-19.79 0,0 0.94,-9.06 3.19,-12.76 2.25,-3.7 -2.05,-8.69 -2.05,-8.69 z m -168.76,-7.71 0.17,4.19 c -1,-1.61 -1.72,-2.77 -1.72,-2.77 z"
     fill="url(#ac3cc305-f6db-42f4-bbbd-32121ee27a74-742)"
     id="path126"
     style="fill:url(#linearGradient350)" />
  <path
     d="m 439.56524,455.11635 -2.16,9.2 c 0,0 -17.3,-8.83 -20.42,-20.05 -3.12,-11.22 5.22,-15.48 5.22,-15.48 l 16.12,6.83 z"
     fill="#ffffff"
     id="path128" />
  <path
     d="m 439.56524,455.11635 -2.16,9.2 c 0,0 -17.3,-8.83 -20.42,-20.05 -3.12,-11.22 5.22,-15.48 5.22,-15.48 l 16.12,6.83 z"
     opacity="0.1"
     id="path130" />
  <path
     d="m 342.47524,768.22635 c 0,0 -16,5.88 -27,6.62 -5.84,0.39 -8.91,-3.19 -10.49,-6.64 a 20.1,20.1 0 0 1 -1.65,-6.05 l 1.43,-15.85 0.76,-8.44 23.37,-6.07 3.31,10.12 0.31,0.77 c 1.33,3.38 6.66,17.13 6.5,20 a 5.46,5.46 0 0 0 1.64,3.95 9.51,9.51 0 0 0 1.82,1.59 z"
     fill="#ffffff"
     id="path132" />
  <path
     d="m 451.76524,760.16635 a 4,4 0 0 1 -0.14,1.43 c 0,0 -34.22,5.71 -41.22,0 a 18.54,18.54 0 0 0 -14.4,-4.22 c 0,0 -13.24,0.36 -15.45,-4 -0.92,-1.83 -0.68,-5.38 -0.11,-8.88 a 84.59,84.59 0 0 1 2.32,-9.71 l 0.53,-0.42 3.15,-2.53 36.88,-1.09 h 0.28 c -0.18,7.54 12.52,16.19 12.52,16.19 13.49,5 15.48,10.65 15.64,13.23 z"
     fill="#ffffff"
     id="path134" />
  <path
     d="m 451.76524,760.16635 a 4.08,4.08 0 0 1 -0.15,1.43 c 0,0 -34.21,5.71 -41.21,0 a 18.54,18.54 0 0 0 -14.39,-4.22 c 0,0 -13.25,0.36 -15.45,-4 -0.92,-1.84 -0.69,-5.38 -0.12,-8.88 5.1,0.51 13.15,1.78 16.31,4.81 4.78,4.61 12.88,9.21 17.85,9.57 3.89,0.25 27.16,0.99 37.16,1.29 z"
     opacity="0.1"
     id="path136" />
  <path
     d="m 342.47524,768.22635 c 0,0 -16,5.88 -27,6.62 -5.84,0.39 -8.91,-3.19 -10.48,-6.65 4.07,1.37 9.72,2.81 12.69,1.49 3.52,-1.56 16,-2.57 23,-3 a 9.85,9.85 0 0 0 1.79,1.54 z"
     opacity="0.1"
     id="path138" />
  <path
     d="m 366.21524,294.37635 c -13.2,-5.13 -30.18,-22.08 -25.94,-30 a 17.72,17.72 0 0 0 1.65,-6.36 58.07,58.07 0 0 0 0.12,-9 123.25,123.25 0 0 0 -1.77,-14.64 c 0,0 41.21,0.93 38.81,7 -0.7,1.78 -0.81,4.87 -0.62,8.33 0.19,3.46 0.69,7.37 1.21,10.68 0.72,4.54 1.44,8 1.44,8 0,0 -2.52,3.53 -4,3.72 -1.48,0.19 8.04,29.58 -10.9,22.27 z"
     fill="#cf6f80"
     id="path140" />
  <path
     d="m 332.48524,742.68635 -0.31,0.34 c -12.32,-14.9 -27.22,3.67 -27.22,3.67 l -0.22,-0.39 0.76,-8.44 23.37,-6.07 3.31,10.12 z"
     opacity="0.1"
     id="path142" />
  <path
     d="m 423.61524,731.79635 c 0,0 -9,-0.19 -13.8,4.05 -4.8,4.24 -28,0.92 -27,0 a 3.29,3.29 0 0 0 0.52,-1.52 l 3.15,-2.53 36.88,-1.09 c 0.14,0.67 0.25,1.09 0.25,1.09 z"
     opacity="0.1"
     id="path144" />
  <path
     d="m 347.81524,614.78635 a 27.82,27.82 0 0 0 -1.52,5.13 58.71,58.71 0 0 0 -0.69,14.56 c 0.37,7 0,53.91 0,53.91 0,0 -7.91,12.51 -12.32,16.92 -4.41,4.41 9,12.33 9,12.33 2,11.4 -10.12,24.28 -10.12,24.28 -12.32,-14.9 -27.22,3.68 -27.22,3.68 0,0 -8.1,-14 -10.12,-19 -2.02,-5 7.91,-8.46 11.4,-10.49 3.49,-2.03 -0.17,-14 -0.17,-14 0,0 -2.95,-10.49 -6.45,-20.06 -3.5,-9.57 3.86,-57.21 3.86,-57.21 0,0 0.38,-8.46 1.29,-11.41 a 19.08,19.08 0 0 0 0.27,-6.48 c -0.06,-0.73 -0.13,-1.34 -0.18,-1.75 -0.05,-0.41 -0.09,-0.6 -0.09,-0.6 l 0.14,-0.24 5,-9.32 c 0,0 40.32,13.88 37.92,19.75 z"
     fill="#6c63ff"
     id="path146" />
  <path
     d="m 423.61524,730.69635 c 0,0 -9,-0.19 -13.8,4 -4.8,4.19 -28,0.92 -27,0 1,-0.92 0.92,-7.73 0.92,-7.73 -13.61,-18.58 -2,-26.12 -2,-26.12 0,0 -6.08,-29.25 -7.18,-40.1 -0.77,-7.58 -1.72,-27.95 -2.23,-39.58 -0.22,-5 -0.35,-8.44 -0.35,-8.44 l 11.12,-2.24 1.43,-0.29 26.82,-5.38 c 0,0 0.74,5 1.24,9.09 a 42.48,42.48 0 0 1 0.42,5.27 c -0.18,2 0,8.26 0,8.26 l 0.91,18.77 a 21.32,21.32 0 0 0 -0.91,6.07 c 0.18,2.39 3.67,36.61 3.67,36.61 0,0 6.07,20.42 4,21.89 -2.07,1.47 2.94,19.92 2.94,19.92 z"
     fill="#6c63ff"
     id="path148" />
  <path
     d="m 379.08524,241.37635 c -0.7,1.78 -0.81,4.87 -0.62,8.33 a 34.25,34.25 0 0 1 -36.42,-0.68 123.25,123.25 0 0 0 -1.77,-14.65 c 0,0 41.21,0.91 38.81,7 z"
     opacity="0.1"
     id="path150" />
  <path
     d="m 395.01524,219.27635 a 33.87,33.87 0 0 1 -1.68,10.61 34.22,34.22 0 0 1 -66.74,-9.79 c 0,-0.28 0,-0.54 0,-0.82 a 34.22,34.22 0 1 1 68.43,0 z"
     fill="#cf6f80"
     id="path152" />
  <path
     d="m 366.21524,294.37635 c -13.2,-5.13 -30.18,-22.08 -25.94,-30 a 17.72,17.72 0 0 0 1.65,-6.36 l 18.07,14.85 11.18,9.17 8.5,-21.64 c 0.72,4.54 1.44,8 1.44,8 0,0 -2.52,3.53 -4,3.72 -1.48,0.19 8.04,29.57 -10.9,22.26 z"
     opacity="0.1"
     id="path154" />
  <polygon
     points="378.17,614.79 327.21,467.8 335.57,293.29 337.33,256.42 359.99,275.03 371.18,284.2 379.93,261.93 396.2,276.11 412.94,360 397.85,613.5 "
     fill="#6c63ff"
     id="polygon156"
     transform="translate(0.00523657,0.00635364)" />
  <path
     d="m 347.81524,614.78635 a 27.82,27.82 0 0 0 -1.52,5.13 145,145 0 0 1 -41.26,-12.89 l -0.27,-0.14 0.09,-1.61 0.05,-0.84 5,-9.32 c 0,0 40.31,13.8 37.91,19.67 z"
     opacity="0.1"
     id="path158" />
  <path
     d="m 383.32524,619.95635 a 101.24,101.24 0 0 1 -11.06,1.26 c -0.22,-5 -0.35,-8.44 -0.35,-8.44 l 11.12,-2.24 z"
     opacity="0.1"
     id="path160" />
  <path
     d="m 412.52524,613.95635 c -7.11,1.85 -18.09,3.93 -27.92,2.63 l -0.14,-6.34 26.82,-5.38 c 0,0 0.74,4.95 1.24,9.09 z"
     opacity="0.1"
     id="path162" />
  <path
     d="m 384.42524,617.74635 c -41,7 -78.55,-13.07 -78.55,-13.07 l 0.36,-6.8 c 0,0 0.93,-77.09 -1.65,-83 -2.58,-5.91 -4.59,-35.88 -3.13,-40.48 1.46,-4.6 -5.33,-73.58 -5.33,-73.58 l -1.1,-28 -40.26,-16.31 18,-37.52 a 135.39,135.39 0 0 0 6.26,-16.2 c 3.13,-9.74 17.66,-19.31 17.66,-19.31 0,0 14.9,-9.56 20.79,-9.2 5.89,0.36 13.61,-8.46 13.61,-8.46 5.7,-14.53 10.86,-7.95 10.86,-7.95 0,0.69 0,0 -0.28,2.15 -2,15.95 32.34,66.35 32.83,67.24 v 0 l 3.27,79.66 3.31,100.81 z"
     opacity="0.1"
     id="path164" />
  <path
     d="m 383.32524,617.74635 c -41,7 -78.56,-13.07 -78.56,-13.07 l 0.37,-6.8 c 0,0 0.93,-77.09 -1.66,-83 -2.59,-5.91 -4.59,-35.88 -3.12,-40.48 1.47,-4.6 -5.33,-73.58 -5.33,-73.58 l -1.11,-28 -40.28,-16.37 18,-37.52 a 137.51,137.51 0 0 0 6.26,-16.2 c 3.12,-9.74 17.66,-19.31 17.66,-19.31 0,0 14.9,-9.56 20.78,-9.2 5.88,0.36 13.61,-8.46 13.61,-8.46 5.71,-14.53 12,-7.95 12,-7.95 0,0.69 -0.6,1 -0.28,2.15 4.4,15.47 31.24,66.35 31.73,67.24 v 0 l 3.31,79.66 3.31,100.81 z"
     fill="#ffffff"
     id="path166" />
  <path
     d="m 372.27524,329.46635 c -4.41,-1.84 -27.77,-28.51 -27.77,-28.51 v -6.07 c -0.85,-2 -5.9,-0.78 -10,0.62 l 1.76,-36.87 2,1.66 c 4.38,15.46 33.5,68.28 34.01,69.17 z"
     opacity="0.1"
     id="path168" />
  <path
     d="m 373.38524,327.25635 c -4.42,-1.84 -27.78,-28.51 -27.78,-28.51 v -6.07 c -0.85,-2 -5.9,-0.78 -10,0.62 l 1.77,-36.87 2,1.66 c 4.39,15.46 33.52,68.29 34.01,69.17 z"
     fill="#ffffff"
     id="path170" />
  <path
     d="m 305.87524,460.26635 c 0.55,0 28.51,-2.94 28.51,-2.94 0,0 16.93,33.29 15.82,41.39 -1.11,8.1 -3.12,15.27 -9.93,14 -6.81,-1.27 -36.65,1 -36.65,1 z"
     opacity="0.1"
     id="path172" />
  <path
     d="m 304.76524,458.05635 c 0.55,0 28.51,-2.94 28.51,-2.94 0,0 16.92,33.3 15.82,41.39 -1.1,8.09 -3.13,15.27 -9.93,14 -6.8,-1.27 -36.65,1 -36.65,1 z"
     fill="#ffffff"
     id="path174" />
  <path
     d="m 325.83524,442.42635 c 0,0 25.66,13.79 26.21,18 0.55,4.21 -13.06,-1.84 -16,-2.57 a 36.61,36.61 0 0 0 -5.89,-0.92 l -19.61,0.53 z"
     fill="#cf6f80"
     id="path176" />
  <circle
     cx="365.11523"
     cy="328.48636"
     r="2.7"
     opacity="0.1"
     id="circle178" />
  <circle
     cx="365.11523"
     cy="327.38635"
     r="2.7"
     fill="#3f3d56"
     id="circle180" />
  <circle
     cx="370.08524"
     cy="445.36633"
     r="2.7"
     opacity="0.1"
     id="circle182" />
  <circle
     cx="370.08524"
     cy="444.25635"
     r="2.7"
     fill="#3f3d56"
     id="circle184" />
  <circle
     cx="367.80524"
     cy="386.92636"
     r="2.7"
     opacity="0.1"
     id="circle186" />
  <circle
     cx="367.80524"
     cy="385.82635"
     r="2.7"
     fill="#3f3d56"
     id="circle188" />
  <path
     d="m 430.04524,456.37635 c 0,0 1.84,2.76 0,4.05 -1.84,1.29 0.18,4.41 0.18,4.41 0,0 -4.59,2.69 -2.57,5.11 2.02,2.42 0.74,13.35 0.74,13.35 l -5.52,9.14 c 0,0 0.33,5.89 0.35,13.85 0,12.42 -0.73,29.88 -4.77,37.84 l 0.56,65.31 c 0,0 -19.33,7.06 -35.51,4.91 l -2.4,-104.8 c 0,0 3.5,-59.43 4.79,-70.83 a 118.68,118.68 0 0 0 0.92,-17.85 c 0,0 -0.55,-17.84 -2.4,-26.12 0,0 -2,-35.87 -2.2,-45.8 -0.09,-4.75 0.16,-18.61 0.44,-31.79 0.31,-14.41 0.66,-28 0.66,-28 l -3.65,-28.88 c 0,0 3.65,-0.37 4.75,1.1 a 10.53,10.53 0 0 0 1.6,1.23 v 0 c 6.3,4.26 28.56,17.36 28.56,17.36 0,0 12.32,4.9 15.27,11.92 2.95,7.02 5,12 6.43,14 1.43,2 2.21,11.4 2.21,11.4 0,0 4.24,17.3 7.55,20.23 3.31,2.93 5.73,21.57 5.73,21.57 l -29.25,23 c 0,0 -2.57,38.26 -3.12,39.74 -0.55,1.48 10.65,34.55 10.65,34.55 z"
     fill="#ffffff"
     id="path190" />
  <path
     d="m 431.15524,456.37635 c 0,0 1.83,2.76 0,4.05 -1.83,1.29 0.17,4.41 0.17,4.41 0,0 -4.56,2.72 -2.56,5.14 2,2.42 0.74,13.35 0.74,13.35 l -5.52,9.14 c 0,0 0.33,5.89 0.36,13.85 0,12.42 -0.73,29.88 -4.77,37.84 l 0.55,65.31 c 0,0 -19.36,7.06 -35.52,4.91 l -2.39,-104.8 c 0,0 3.5,-59.43 4.79,-70.83 a 117.58,117.58 0 0 0 0.91,-17.85 c 0,0 -0.55,-17.84 -2.39,-26.12 0,0 -2,-35.87 -2.21,-45.8 -0.09,-4.75 0.17,-18.61 0.44,-31.79 0.31,-14.41 0.66,-28 0.66,-28 l -4.82,-29.27 c 0,0 4.82,0 5.93,1.49 a 9.49,9.49 0 0 0 1.6,1.23 v 0 c 6.3,4.26 28.57,17.36 28.57,17.36 0,0 12.31,4.9 15.26,11.92 2.95,7.02 5,12 6.44,14 1.44,2 2.2,11.4 2.2,11.4 0,0 4.24,17.3 7.55,20.23 3.31,2.93 5.7,21.53 5.7,21.53 l -29.25,23 c 0,0 -2.57,38.26 -3.13,39.74 -0.56,1.48 10.69,34.56 10.69,34.56 z"
     fill="#ffffff"
     id="path192" />
  <path
     d="m 396.12524,297.67635 2.64,7.7 -13.9,14 c 0.31,-14.4 0.66,-28 0.66,-28 l -4.82,-29.27 c 0,0 4.82,0 5.93,1.49 a 9.12,9.12 0 0 0 1.6,1.22 v 0 l 11.82,34.1 z"
     opacity="0.1"
     id="path194" />
  <path
     d="m 395.01524,295.46635 2.65,7.7 -13.9,14 c 0.31,-14.41 0.66,-28 0.66,-28 l -4.83,-29.27 c 0,0 4.83,0 5.93,1.49 a 10,10 0 0 0 1.6,1.23 v 0 l 11.83,34.09 z"
     fill="#ffffff"
     id="path196" />
  <path
     d="m 395.01524,219.27635 a 33.87,33.87 0 0 1 -1.68,10.61 1.43,1.43 0 0 1 -1.08,-0.27 c -0.26,-9 -4.69,-17.45 -10.14,-24.64 a 25.89,25.89 0 0 0 -5.5,-5.7 10.76,10.76 0 0 0 -7.46,-2.11 c -3,0.41 -5.65,2.45 -8.68,2.71 -4,0.33 -7.58,-2.44 -11.55,-2.58 a 11.35,11.35 0 0 0 -8.49,3.94 23.29,23.29 0 0 0 -4.55,8.44 49.38,49.38 0 0 0 -2.54,14.56 c -0.05,2.8 -0.32,6.31 -2.92,7.33 a 14.94,14.94 0 0 0 -3.77,-11.41 l -0.06,-0.06 c 0,-0.28 0,-0.54 0,-0.82 a 34.22,34.22 0 1 1 68.43,0 z"
     opacity="0.1"
     id="path198" />
  <path
     d="m 374.97524,164.94635 a 23.56,23.56 0 0 0 -16.62,-1.3 c -2.77,0.82 -5.38,2.15 -8.19,2.82 -6,1.45 -13,-0.12 -18.15,3.39 -2.86,2 -4.58,5.16 -6.18,8.23 l -4,7.62 c -2.18,4.17 -4.38,8.41 -5.29,13 -0.91,4.59 -0.36,9.73 2.55,13.42 2.12,2.69 5.25,4.38 7.55,6.91 a 15,15 0 0 1 3.76,11.4 c 2.61,-1 2.86,-4.52 2.92,-7.32 a 49.38,49.38 0 0 1 2.54,-14.56 23.21,23.21 0 0 1 4.55,-8.44 11.37,11.37 0 0 1 8.49,-3.94 c 4,0.14 7.59,2.9 11.55,2.57 3,-0.25 5.66,-2.3 8.68,-2.7 a 10.72,10.72 0 0 1 7.46,2.11 25.62,25.62 0 0 1 5.49,5.7 c 5.46,7.19 9.89,15.62 10.15,24.64 1.13,0.83 2.76,-0.25 3.32,-1.53 0.56,-1.28 0.58,-2.78 1.29,-4 0.82,-1.41 2.39,-2.16 3.62,-3.22 3.12,-2.69 3.9,-7.22 3.78,-11.33 -0.12,-4.11 -0.92,-8.28 -0.14,-12.32 0.47,-2.48 1.53,-4.8 2.11,-7.25 0.58,-2.45 0.65,-5.2 -0.72,-7.31 -2,-3.1 -6.21,-3.71 -9.88,-4 -4.17,-0.36 -7.9,0.1 -10.56,-3.41 a 38.3,38.3 0 0 0 -4.2,-5.14 c -0.53,-0.52 -5.88,-3.82 -5.88,-4.04 z"
     fill="#512e4e"
     id="path200" />
  <path
     d="m 266.28524,375.82635 -10.45,-19.32 -3.31,29.81 c 0,0 1.84,13.24 1.47,15.27 -0.37,2.03 7.54,20.23 7.54,20.23 0,0 26.13,46.54 36.8,48.94 l 36.05,-25.76 -9.56,-12.14 c 0,0 -3.31,-1.29 -4.14,0 0,0 -17.75,-30.54 -19.59,-32.75 -1.84,-2.21 -1.48,-6.62 -1.48,-6.62 0,0 -2.76,-2.94 -1.84,-5.7 0.92,-2.76 -5.33,-12.33 -5.33,-12.33 l 5.7,-5.33 z"
     opacity="0.1"
     id="path202" />
  <path
     d="m 256.38524,354.30635 -2.76,2.2 -3.31,29.81 c 0,0 1.84,13.24 1.47,15.27 -0.37,2.03 7.55,20.23 7.55,20.23 0,0 26.12,46.54 36.79,48.94 l 36.06,-25.76 -9.57,-12.14 c 0,0 -3.31,-1.29 -4.14,0 0,0 -17.75,-30.54 -19.59,-32.75 -1.84,-2.21 -1.47,-6.62 -1.47,-6.62 0,0 -2.76,-2.94 -1.84,-5.7 0.92,-2.76 -5.34,-12.33 -5.34,-12.33 l 5.7,-5.33 z"
     fill="#ffffff"
     id="path204" />
  <path
     d="m 427.65524,471.08635 c 2,2.43 0.74,13.34 0.74,13.34 l -5.52,9.14 c 0,0 0.33,5.9 0.35,13.85 l -9.28,2.9 a 5.51,5.51 0 0 1 -7.15,-5.43 l 1.6,-51.61 21.65,8.28 c -1.84,1.28 0.18,4.42 0.18,4.42 0,0 -4.59,2.68 -2.57,5.11 z"
     opacity="0.1"
     id="path206" />
  <path
     d="m 428.76524,469.97635 c 2,2.43 0.74,13.35 0.74,13.35 l -5.52,9.14 c 0,0 0.33,5.89 0.36,13.85 l -9.45,2.95 a 5.4,5.4 0 0 1 -7,-5.32 l 1.61,-51.77 21.66,8.28 c -1.85,1.28 0.17,4.41 0.17,4.41 0,0 -4.57,2.69 -2.57,5.11 z"
     fill="#ffffff"
     id="path208" />
  <path
     d="m 435.93524,445.37635 c 0,0 -1.47,9.39 -5.15,9.94 -3.68,0.55 -5.33,15.19 -9,14.67 -3.67,-0.52 -1.24,-13.61 -1.11,-16.15 0.13,-2.54 -4,-13.06 -0.91,-15.45 3.09,-2.39 12.87,0 12.87,0 z"
     fill="#cf6f80"
     id="path210" />
  <path
     d="m 443.76524,373.06635 6.94,-14 c 0,0 2.76,10.67 2.76,16.37 0,5.7 3.86,6.26 3.86,6.26 0,0 4.23,5 2,8.64 -2.23,3.64 -3.13,12.7 -3.13,12.7 0,0 0.73,17.29 -2.58,19.68 -3.31,2.39 -4,8.1 -4,8.1 0,0 -6.08,10.85 -5.89,13.43 0.19,2.58 -8.46,20.05 -8.46,20.05 0,0 4.23,-21.71 -20.42,-31.09 0,0 -0.19,-7.37 1.65,-9.39 1.84,-2.02 4.71,-2.94 2.91,-13.15 -1.8,-10.21 -0.52,-22.41 -0.52,-24.86 0,-2.45 5.52,-17.73 5.52,-17.73 z"
     opacity="0.1"
     id="path212" />
  <path
     d="m 446.76524,357.06635 6.06,2 c 0,0 2.77,10.67 2.77,16.37 0,5.7 3.86,6.26 3.86,6.26 0,0 4.23,5 2,8.64 -2.23,3.64 -3.12,12.7 -3.12,12.7 0,0 0.73,17.29 -2.58,19.68 -3.31,2.39 -4.05,8.1 -4.05,8.1 0,0 -6.07,10.85 -5.88,13.43 0.19,2.58 -8.47,20.05 -8.47,20.05 0,0 4.24,-21.71 -20.42,-31.09 0,0 -0.18,-7.37 1.66,-9.39 1.84,-2.02 4.71,-2.94 2.91,-13.15 -1.8,-10.21 -0.52,-22.41 -0.52,-24.86 0,-2.45 5.52,-17.73 5.52,-17.73 z"
     fill="#ffffff"
     id="path214" />
  <path
     d="m 312.91524,719.93635 c 0,0 9.66,-6.07 16,-1.66 6.34,4.41 -16,1.66 -16,1.66 z"
     opacity="0.1"
     id="path216" />
  <path
     d="m 387.97524,701.16635 c 0,0 8.55,-1.1 15.73,6.63 7.18,7.73 -15.73,-6.63 -15.73,-6.63 z"
     opacity="0.1"
     id="path218" />
  <g
     opacity="0.1"
     id="g226"
     transform="translate(0.00523657,0.00635364)">
    <path
       d="m 447.72,276.18 c -1.23,1.06 -2.81,1.82 -3.63,3.23 -0.7,1.21 -0.72,2.7 -1.28,4 -0.56,1.3 -2.19,2.36 -3.32,1.54 -0.26,-9 -4.7,-17.45 -10.15,-24.65 a 25.62,25.62 0 0 0 -5.49,-5.7 10.75,10.75 0 0 0 -7.47,-2.11 c -3,0.41 -5.64,2.45 -8.67,2.7 -4,0.34 -7.59,-2.43 -11.56,-2.57 a 11.32,11.32 0 0 0 -8.48,3.95 23.16,23.16 0 0 0 -4.55,8.43 49.44,49.44 0 0 0 -2.54,14.56 c -0.06,2.79 -0.32,6.27 -2.9,7.31 a 13.7,13.7 0 0 1 0,2.22 c 2.6,-1 2.86,-4.52 2.92,-7.32 a 49.38,49.38 0 0 1 2.54,-14.56 23.21,23.21 0 0 1 4.55,-8.44 11.35,11.35 0 0 1 8.48,-3.94 c 4,0.14 7.6,2.9 11.56,2.57 3,-0.25 5.66,-2.3 8.67,-2.7 a 10.75,10.75 0 0 1 7.47,2.11 25.62,25.62 0 0 1 5.49,5.7 c 5.45,7.19 9.89,15.62 10.15,24.64 1.13,0.83 2.76,-0.25 3.32,-1.53 0.56,-1.28 0.58,-2.78 1.28,-4 0.82,-1.41 2.4,-2.16 3.63,-3.22 3.12,-2.69 3.9,-7.22 3.78,-11.33 0,-0.13 0,-0.26 0,-0.38 -0.19,3.56 -1.14,7.19 -3.8,9.49 z"
       transform="translate(-47.24,-58.63)"
       id="path220" />
    <path
       d="m 373.9,275.47 c -2.3,-2.53 -5.44,-4.22 -7.55,-6.9 a 14.64,14.64 0 0 1 -2.91,-8.19 15.4,15.4 0 0 0 2.91,10.39 c 2.11,2.69 5.25,4.38 7.55,6.91 a 15,15 0 0 1 3.77,8.92 15,15 0 0 0 -3.77,-11.13 z"
       transform="translate(-47.24,-58.63)"
       id="path222" />
    <path
       d="m 453.47,245.28 c -0.59,2.45 -1.64,4.78 -2.12,7.25 a 23.1,23.1 0 0 0 -0.31,5 19.42,19.42 0 0 1 0.31,-2.84 c 0.48,-2.48 1.53,-4.8 2.12,-7.25 a 12.3,12.3 0 0 0 0.33,-4.14 13.9,13.9 0 0 1 -0.33,1.98 z"
       transform="translate(-47.24,-58.63)"
       id="path224" />
  </g>
  <ellipse
     cx="132.73523"
     cy="744.94635"
     rx="97.440002"
     ry="15.65"
     fill="#6c63ff"
     opacity="0.1"
     id="ellipse228" />
  <rect
     x="129.60524"
     y="445.14636"
     width="6.27"
     height="141.17"
     fill="#535461"
     id="rect230" />
  <path
     d="m 175.27524,585.88635 -0.39,6.36 -0.56,9 -0.23,3.74 -0.55,9 -0.24,3.74 -0.56,9 -6.32,102.07 a 17.3,17.3 0 0 1 -17.26,16.22 h -32.86 a 17.29,17.29 0 0 1 -17.250003,-16.22 l -6.29,-102.14 -0.56,-9 -0.23,-3.74 -0.56,-9 -0.23,-3.74 -0.56,-9 -0.4,-6.36 a 9,9 0 0 1 9,-9.51 h 67.210003 a 8.94,8.94 0 0 1 8.84,9.58 z"
     fill="#3f3d56"
     id="path232" />
  <polygon
     points="91.14,601.21 90.58,592.24 174.88,592.24 174.32,601.21 "
     fill="#9d9cb5"
     id="polygon234"
     transform="translate(0.00523657,0.00635364)" />
  <polygon
     points="91.93,613.93 91.37,604.95 174.09,604.95 173.54,613.93 "
     fill="#9d9cb5"
     id="polygon236"
     transform="translate(0.00523657,0.00635364)" />
  <polygon
     points="92.72,626.65 92.16,617.68 173.3,617.68 172.75,626.65 "
     fill="#9d9cb5"
     id="polygon238"
     transform="translate(0.00523657,0.00635364)" />
  <path
     d="m 81.015237,498.05635 c 36.510003,26.42 51.750003,67.74 51.750003,67.74 0,0 -44.000003,-1.51 -80.520003,-27.93 -36.52,-26.42 -51.73000043,-67.73 -51.73000043,-67.73 0,0 43.98000043,1.5 80.50000043,27.92 z"
     fill="#6c63ff"
     id="path240" />
  <path
     d="m 0.48523657,470.13635 c 0,0 45.68000043,25.35 60.33000043,46.34 14.65,20.99 71.950003,49.32 71.950003,49.32"
     fill="none"
     stroke="#535461"
     stroke-miterlimit="10"
     stroke-width="2"
     id="path242" />
  <path
     d="m 104.58524,444.83635 c 19.87,14.37 28.18,36.86 28.18,36.86 0,0 -23.95,-0.82 -43.830003,-15.19 -19.88,-14.37 -28.17,-36.87 -28.17,-36.87 0,0 23.94,0.82 43.820003,15.2 z"
     fill="#6c63ff"
     id="path244" />
  <path
     d="m 60.765237,429.63635 c 0,0 24.86,13.8 32.83,25.22 7.970003,11.42 39.170003,26.84 39.170003,26.84"
     fill="none"
     stroke="#535461"
     stroke-miterlimit="10"
     stroke-width="2"
     id="path246" />
  <path
     d="m 161.61524,480.55635 c -22.83,25.09 -27.66,57.88 -27.66,57.88 0,0 32.19,-7.9 55,-33 22.81,-25.1 27.66,-57.88 27.66,-57.88 0,0 -32.17,7.91 -55,33 z"
     fill="#6c63ff"
     id="path248" />
  <path
     d="m 216.63524,447.56635 c 0,0 -29.74,25.72 -37.3,43.44 -7.56,17.72 -45.38,47.43 -45.38,47.43"
     fill="none"
     stroke="#535461"
     stroke-miterlimit="10"
     stroke-width="2"
     id="path250" />
  <path
     d="m 999.67524,471.72635 c 0,0 -16.51,-82.14 -10.19,-92.36 0,0 0.23,-9.5 -0.15,-21.61 0,-0.46 0,-0.92 0,-1.39 a 30.76,30.76 0 0 0 3.47,2 28.08,28.08 0 0 0 18.89996,2.44 l -5,-5.57 c -1.2,-1.33 -2.45,-2.77 -2.71,-4.53 -0.26,-1.76 0.46,-3.33 1.08,-4.9 4.75,-12 5,-27.09 -4.15,-36.25 -7.72996,-7.7 -9.60996,-17.64 -17.99996,-24.67 -6.13,-5.15 -9.5,-12.7 -12.68,-20 -2.69,-6.17 -5.4,-12.39 -6.94,-18.93 -1.2,-5.11 -1.68,-10.4 -3.33,-15.39 -1.65,-4.99 -4.74,-9.84 -9.57,-12.07 -1.72,-0.79 -3.63,-1.24 -5.2,-2.29 -2.06,-1.39 -3.3,-3.65 -4.79,-5.63 -7.57,-10 -32.92,-4.11 -44.92,-0.05 a 25.27,25.27 0 0 0 -8.88,4.92 l 0.11,-0.18 c 0.09,-0.15 0.2,-0.3 0.3,-0.45 a 15.78,15.78 0 0 0 -3.36,3.75 c -1.75,2.77 -2.48,6 -3.94,9 -1.76,3.55 -11.55,13.46 -7.34,17.45 a 3.55,3.55 0 0 0 1,0.64 8.65,8.65 0 0 0 5,0.5 l -0.18,0.43 a 29.23,29.23 0 0 0 -2.17,11.09 c 0,16.43 13.55,29.75 30.28,29.75 a 30.57,30.57 0 0 0 9.27,-1.43 c 0.07,0.38 0.13,0.76 0.2,1.14 0,0.15 0.05,0.3 0.07,0.45 v 0 l -0.53,0.74 a 1,1 0 0 0 -0.09,-0.13 l -15.7,21.94 c -2.4,1.69 -16.22,11.69 -17,19.19 -0.82,8.21 -1.64,17.82 -1.64,17.82 l -0.11,2.06 a 6.18,6.18 0 0 1 -5,1.35 c -4.9,-0.8 -4.9,18 -4.9,18 0,0 -3.26,3 -5.5,0.4 -2.24,-2.6 -8.16,6.21 -8.16,6.21 l -37.1,1.6 v 0 l -0.85,0.05 -2,-6.19 a 2.61,2.61 0 0 0 -3.27,-1.67 3,3 0 0 0 -0.45,0.19 l -0.14,0.08 -0.26,0.18 -0.13,0.12 a 2,2 0 0 0 -0.2,0.21 l -0.12,0.14 -0.06,0.06 v 0 a 2.52,2.52 0 0 0 -0.36,2.24 l 1.72,5.31 c -7.16,1.44 -14.48,5.5 -8.51,16.68 l -30.26,-5.59 9.79,8.22 50.54,10.43 c -0.67,1.2 -0.23,2.94 1.86,5.39 9,10.57 25.4,13.44 32,14.18 a 56.81,56.81 0 0 0 6.49,11 l -0.57,10.53 c 0,0 -16.71,80.26 -19.77,84.33 a 47.57,47.57 0 0 0 4.23,-5.57 c -4.85,16.49 -11.63,39.06 -13.41,42.44 -2.86,5.4 -5.51,27.25 -2.25,28.65 1,0.43 3.86,0.22 7.94,-0.09 v 1.81 l -0.18,68.59 c 0,0 0.82,42.07 -1.43,46.08 -2.25,4.01 -2.85,12.42 -2.85,12.42 0,0 -9,16.59 -16.13,23.26 a 1.07,1.07 0 0 1 -0.16,0.14 l -0.22,-1.56 c 0,0 -8.57,10.82 -27.53,10.21 0,0 -11.41,7.42 5.51,7.82 16.92,0.4 38.53,-0.6 38.53,-0.6 0,0 15.09,-23 27.73,-20 v 17.43 h 3.87 v -17.71 a 15.87,15.87 0 0 0 6.89,-10.43 12.68,12.68 0 0 0 -4.52,-11.73 7.5,7.5 0 0 1 -2.47,-5.48 l -0.14,0.12 c 0,-0.35 -0.09,-0.71 -0.13,-1.08 -1.11,-9 -2.5,-27.57 2.41,-41.31 6.73,-18.84 8.77,-45.08 3.87,-60.7 a 139.56,139.56 0 0 1 -3.89,-15.21 c -0.12,-0.65 -0.23,-1.27 -0.33,-1.85 a 78.85,78.85 0 0 1 9.93,2 c 11.35,3.13 36.18,3.71 57.38,3.54 0.05,0.58 0.11,1.19 0.18,1.8 a 65.5,65.5 0 0 0 2.36,12.52 c 2.66,8 3.88,43.27 3.88,43.27 0,0 3.43,29 1.56,40.8 -1,6.56 -2,13.15 -2.57,19.77 v 0.13 c 0,0 -5.62,16 -9.73,24.69 -0.1,0.22 -0.21,0.44 -0.31,0.65 a 13,13 0 0 0 -3.21,0.71 c 0,0 -5.51,11 -11,12.82 -5.49,1.82 -3.67,7.81 8.76,5.61 12.43,-2.2 31.2,-4 31.2,-4 l 0.81,-11.22 3.82,-4.78 -1,11.19 4.07,-0.8 -0.54,-13.61 6.25,-7.82 c 0,0 7.55,-6.72 -3.67,-19.94 v 0.29 c -0.12,-0.19 -0.23,-0.39 -0.36,-0.58 v -0.06 c -1.86,-2.88 -3.34,-8.25 -0.63,-17.78 4.9,-17.22 7.75,-32.85 7.75,-32.85 0,0 10.94,-41.87 -2.21,-61.68 h 0.58 a 33.32,33.32 0 0 1 -2.83,-8.8 q -0.1,-0.54 -0.18,-1.11 c 9.73,-0.56 19.27996,-2.32 27.06996,-6.12 -0.03,-0.04 -4.72,-99.4 -8.59996,-115.22 z m -123.53,-69.3 v 0.2 l -2,0.1 z m -6.86,0.95 a 2.21,2.21 0 0 0 -0.9,0.43 8.88,8.88 0 0 0 -1.57,4.11 l -3.12,-0.7 c 0,0 -2.19,-0.47 -5.34,-1 l -1.49,-1.5 c 4.1,-0.34 8.36,-0.84 12.42,-1.34 z"
     fill="url(#ad14f186-b27f-416c-b629-0bafa2f1236e-743)"
     id="path252"
     style="fill:url(#ad14f186-b27f-416c-b629-0bafa2f1236e-743)" />
  <polygon
     points="975.31,756.9 974.71,741.53 972.51,743.53 971.32,757.7 "
     fill="#1d2366"
     id="polygon254"
     transform="translate(0.00523657,0.00635364)" />
  <path
     d="m 881.48524,676.25635 c -4.81,13.7 -3.45,32.19 -2.37,41.17 0.4,3.32 0.77,5.34 0.77,5.34 0,0 -7.19,16.38 -7.79,17 -0.6,0.62 -21.16,13.17 -21.16,13.17 l -14.37,8.39 c 0,0 -14.58,-6.39 -7.59,-8.59 a 10.61,10.61 0 0 0 3.77,-2.57 c 7,-6.65 15.79,-23.18 15.79,-23.18 0,0 0.6,-8.39 2.8,-12.38 2.2,-3.99 1.4,-45.92 1.4,-45.92 l 0.17,-68.35 v -8.91 l 27.35,0.2 a 61.89,61.89 0 0 0 1.18,9 137.59,137.59 0 0 0 3.81,15.16 c 4.82,15.59 2.82,41.7 -3.76,60.47 z"
     fill="#ffb0b1"
     id="path256" />
  <path
     d="m 879.88524,722.76635 c 0,0 -7.19,16.38 -7.79,17 -0.6,0.62 -21.16,13.17 -21.16,13.17 l -14.37,8.39 c 0,0 -14.58,-6.39 -7.59,-8.59 a 10.61,10.61 0 0 0 3.77,-2.57 l 0.62,4.37 4.79,-0.2 41,-36.89 c 0.36,3.3 0.73,5.32 0.73,5.32 z"
     opacity="0.1"
     id="path258" />
  <path
     d="m 879.38524,718.37635 -41.23,37.14 -4.79,0.2 -1,-7 c 0,0 -8.38,10.78 -27,10.18 0,0 -11.18,7.39 5.39,7.79 16.57,0.4 37.73,-0.6 37.73,-0.6 0,0 14.78,-23 27.15,-20 v 17.37 h 3.8 v -17.53 a 15.79,15.79 0 0 0 6.74,-10.4 12.74,12.74 0 0 0 -4.41,-11.68 7.53,7.53 0 0 1 -2.38,-5.47 z"
     fill="#1d2366"
     id="path260" />
  <path
     d="m 976.31524,697.61635 c -2.66,9.5 -1.21,14.85 0.61,17.72 v 0.06 a 32.75,32.75 0 0 1 4.78,11.67 l 0.16,0.9 -18.76,27.35 -10.18,4 c 0,0 -16.37,-5.59 -13.38,-7.19 0.75,-0.39 1.92,-2.47 3.26,-5.34 4,-8.65 9.52,-24.61 9.52,-24.61 v -0.13 c 0.58,-6.59 1.5,-13.16 2.52,-19.7 1.83,-11.77 -1.53,-40.66 -1.53,-40.66 0,0 -1.2,-35.13 -3.8,-43.12 a 65.93,65.93 0 0 1 -2.33,-12.44 c -0.54,-5 -0.66,-9.12 -0.66,-9.12 0,0 10.78,-15 30.54,1.2 a 21.74,21.74 0 0 1 4.13,4.48 c 13.65,19.42 2.66,62.2 2.66,62.2 0,0 -2.75,15.56 -7.54,32.73 z"
     fill="#ffb0b1"
     id="path262" />
  <path
     d="m 981.89524,727.96635 -18.76,27.35 -10.18,4 c 0,0 -16.37,-5.59 -13.38,-7.19 0.75,-0.39 1.92,-2.47 3.26,-5.34 6.93,-0.06 10.52,6.54 10.52,6.54 l 8.78,-1.4 c 0,0 11.58,-22.76 14.18,-24.15 2.6,-1.39 0.4,-10.39 0.4,-10.39 v -2.29 c 0.07,0.08 0.13,0.17 0.21,0.25 v 0.06 a 32.75,32.75 0 0 1 4.78,11.67 z"
     opacity="0.1"
     id="path264" />
  <path
     d="m 953.95524,753.91635 c 0,0 -5,-9.18 -14.58,-5.79 0,0 -5.39,11 -10.78,12.78 -5.39,1.78 -3.59,7.78 8.59,5.59 12.18,-2.19 30.54,-4 30.54,-4 l 0.8,-11.19 12.38,-15.77 c 0,0 7.38,-6.69 -3.6,-19.86 v 2.29 c 0,0 2.2,9 -0.4,10.39 -2.6,1.39 -14.14,24.16 -14.14,24.16 z"
     fill="#1d2366"
     id="path266" />
  <path
     d="m 880.28524,591.60635 a 61.89,61.89 0 0 0 1.18,9 c -11.26,-1.65 -21.71,-0.83 -28.56,-0.29 v -8.91 z"
     opacity="0.1"
     id="path268" />
  <path
     d="m 982.30524,605.17635 c 0,0 -16,0.78 -35.08,0.94 -0.54,-5 -0.66,-9.12 -0.66,-9.12 0,0 10.78,-15 30.54,1.2 a 21.74,21.74 0 0 1 4.13,4.48 24.4,24.4 0 0 0 1.07,2.5 z"
     opacity="0.1"
     id="path270" />
  <path
     d="m 982.30524,603.37635 c 0,0 -70.08,3.39 -91.44,-2.6 -21.36,-5.99 -42.53,-0.8 -45.72,-2.19 -3.19,-1.39 -0.6,-23.16 2.2,-28.55 2.8,-5.39 18.16,-59.9 18.16,-59.9 l 14.78,-77.06 15.57,-4.29 1.1,-0.31 27.13,-7.48 19.88,-5.49 c 0,0 39.53,154.33 36.14,165.71 a 29.14,29.14 0 0 0 -0.58,13.39 33.42,33.42 0 0 0 2.78,8.77 z"
     fill="#1d2366"
     id="path272" />
  <path
     d="m 828.76524,380.37635 c 0,0 -14,15 -3.4,23.36 10.6,8.36 17.57,0.8 17.57,0.8 z"
     fill="#c7daf5"
     id="path274" />
  <path
     d="m 828.76524,380.37635 c 0,0 -14,15 -3.4,23.36 10.6,8.36 17.57,0.8 17.57,0.8 z"
     opacity="0.1"
     id="path276" />
  <path
     d="m 941.87524,281.75635 c 0,0 -1.64,1.56 -4.11,3.86 -3.52,3.29 -8.73,8.1 -13.35,12.13 -6.4,5.57 -11.68,9.66 -9.79,6.17 1.89,-3.49 1.53,-9.57 0.59,-15.26 -0.07,-0.38 -0.13,-0.76 -0.2,-1.13 a 104.8,104.8 0 0 0 -3.09,-12.36 c 0,0 10.34,-13.36 16.06,-18.63 2.13,-2 3.62,-2.82 3.71,-1.43 0.1,1.87 1.5,6 3.24,10.38 0.05,0.14 0.1,0.27 0.16,0.41 1.16,3 2.47,6.08 3.62,8.74 1.76,4.08 3.16,7.12 3.16,7.12 z"
     fill="#ffb0b1"
     id="path278" />
  <path
     d="m 935.09524,265.89635 a 29.68,29.68 0 0 1 -19.88,22.76 104.07,104.07 0 0 0 -3.29,-13.49 c 0,0 19.47,-25.15 19.77,-20.06 0.07,1.93 1.59,6.21 3.4,10.79 z"
     opacity="0.1"
     id="path280" />
  <path
     d="m 913.27524,295.37635 2.52,-3.55 c 0,0 1.67,10.18 7.81,5.69 6.14,-4.49 6.44,33.79 6.44,33.79 l -6.59,98.53 -47.62,-2.85 1.35,-47.61 5.39,-24 13.33,-34.89 7.93,-11.53 z"
     opacity="0.1"
     id="path282" />
  <path
     d="m 930.04524,331.91635 -6,89.09 -0.63,9.44 -26.55,-1.59 -1,-0.06 -20,-1.2 1.35,-47.62 5.39,-24 13.33,-34.89 7.93,-11.53 9.44,-13.63 2.52,-3.54 c 0,0 1.67,10.18 7.81,5.69 l 0.13,-0.09 v 0 c 6,-3.8 6.28,33.93 6.28,33.93 z"
     fill="#1d2366"
     id="path284" />
  <path
     d="m 883.27524,347.63635 c 0,0 -2.39,5 -7.19,4.19 -4.8,-0.81 -4.79,18 -4.79,18 0,0 -3.19,3 -5.39,0.4 -2.2,-2.6 -8,6.19 -8,6.19 l -36.34,1.6 c 0,0 16.17,7.39 13,29.75 0,0 54.9,-3.4 56.7,-8.59 1.8,-5.19 -7.99,-51.54 -7.99,-51.54 z"
     fill="#ffffff"
     id="path286" />
  <path
     d="m 883.27524,347.63635 c 0,0 -2.39,5 -7.19,4.19 -4.8,-0.81 -4.79,18 -4.79,18 0,0 -3.19,3 -5.39,0.4 -2.2,-2.6 -8,6.19 -8,6.19 l -36.34,1.6 c 0,0 16.17,7.39 13,29.75 0,0 54.9,-3.4 56.7,-8.59 1.8,-5.19 -7.99,-51.54 -7.99,-51.54 z"
     opacity="0.03"
     id="path288" />
  <polygon
     points="866.1,414.51 856.32,404.53 777.66,389.76 787.24,397.94 "
     fill="#ffffff"
     id="polygon290"
     transform="translate(0.00523657,0.00635364)" />
  <path
     d="m 913.42524,298.52635 c -1.31,2 -5.06,12.24 -8.19,21.18 -2.61,7.45 -4.79,14 -4.79,14 0,0 -5.09,33.14 -7.69,39.13 -2.6,5.99 -1.19,29.35 -1.19,29.35 l -9.69,57.69 c 0,0 -4.39,29.75 -11.17,47.52 -6.69,17.49 -14.14,25.69 -14.37,25.95 3,-4.06 19.35,-84 19.35,-84 l 5.4,-100.82 c 0,0 0.79,-9.58 1.59,-17.77 0.8,-8.19 17,-19.37 17,-19.37 l 15.62,-22.21 c 1.57,2.1 0.52,5.76 -1.87,9.35 z"
     fill="#ffffff"
     id="path292" />
  <path
     d="m 872.69524,428.09635 c 0,0 -23,-1 -34.14,-14.38 -11.14,-13.38 25.75,-5.34 25.75,-5.34 l 9.59,2.2 z"
     fill="#ffb0b1"
     id="path294" />
  <path
     d="m 980.10524,581.22635 a 29.14,29.14 0 0 0 -0.58,13.39 c -25.09,1.78 -51.93,-5 -51.93,-5 -5,4.6 -18.17,11.38 -18.17,11.38 l -7.18,-89 c -4.59,-12 -6.39,-74.87 -6.39,-74.87 0,0 0.41,-3.29 1,-8.22 0,-0.12 0,-0.25 0.05,-0.37 1.79,-13.77 5.34,-39.62 7.08,-43.11 2.4,-4.8 -7.38,-17.57 -7.38,-17.57 l 4.45,-37.95 0.54,-4.58 c 9.38,-4.19 16.57,-17.57 16.57,-17.57 l 5.52,-9.67 v 0 c 6,-3.85 6.31,33.88 6.31,33.88 l -6,89.09 19.88,-5.49 c 0,0 39.62,154.28 36.23,165.66 z"
     opacity="0.1"
     id="path296" />
  <path
     d="m 1005.8552,587.37635 c -27.34996,13.58 -77.05996,1 -77.05996,1 -5,4.6 -18.17,11.38 -18.17,11.38 l -7.19,-89 c -4.58,-12 -6.38,-74.87 -6.38,-74.87 0,0 5.78,-46.91 8.18,-51.7 0.7,-1.4 0.36,-3.48 -0.47,-5.72 a 72.38,72.38 0 0 1 -4.38,-33.49 l 1.92,-16.31 0.53,-4.57 c 9.39,-4.2 16.58,-17.58 16.58,-17.58 l 5,-8.76 9.2,-16.14 4.36,-7.64 0.74,0.67 5.65,5.12 c 0,0 2.4,2 6,5 7.83,6.6 21.36,18.22 28.34,25.33 6.14,6.26 8.08,30.61 8.64,48.94 0.37,12.07 0.15,21.53 0.15,21.53 -6.19,10.19 10,92 10,92 3.76996,15.81 8.35996,114.81 8.35996,114.81 z"
     fill="#ffffff"
     id="path298" />
  <path
     d="m 953.35524,306.31635 c 0,0 -18.77,35.73 -16.59,49.31 2.18,13.58 8.38,28.95 5.39,32.54 a 11.05,11.05 0 0 1 -8.79,4.39 c -3,0.2 -11,5.79 -11,6.39 0,0.6 -7.39,0.6 -14,3.4 -6.61,2.8 -16.37,4.39 -16.37,4.39 0,0 -19,-0.6 -20.77,1.2 -1.77,1.8 -3.59,12.57 0.2,21.16 3.79,8.59 8,15 11.18,16.17 3.18,1.17 23.36,-5.59 39.73,-7.19 16.37,-1.6 34.14,-14.57 34.14,-14.57 0,0 19.57,-7 23,-18.77 3.43,-11.77 -4.19,-76.46 -4.19,-76.46 0,0 -5.76,-30.15 -21.93,-21.96 z"
     opacity="0.03"
     id="path300" />
  <path
     d="m 950.95524,303.31635 c 0,0 -18.77,35.74 -16.57,49.31 2.2,13.57 8.38,28.95 5.38,32.55 a 11,11 0 0 1 -8.78,4.39 c -3,0.2 -11,5.79 -11,6.39 0,0.6 -7.39,0.6 -14,3.39 -6.61,2.79 -16.37,4.39 -16.37,4.39 0,0 -19,-0.6 -20.76,1.2 -1.76,1.8 -3.6,12.58 0.2,21.16 3.8,8.58 8,15 11.18,16.17 3.18,1.17 23.36,-5.59 39.73,-7.18 16.37,-1.59 34.14,-14.58 34.14,-14.58 0,0 19.56,-7 22.95,-18.76 3.39,-11.76 -4.19,-76.47 -4.19,-76.47 0,0 -5.74,-30.14 -21.91,-21.96 z"
     opacity="0.03"
     id="path302" />
  <path
     d="m 952.76524,304.51635 c 0,0 -18.77,35.74 -16.57,49.31 2.2,13.57 8.38,28.95 5.39,32.54 a 11,11 0 0 1 -8.79,4.4 c -3,0.2 -11,5.79 -11,6.38 0,0.59 -7.38,0.6 -14,3.4 -6.62,2.8 -16.37,4.39 -16.37,4.39 0,0 -19,-0.6 -20.77,1.2 -1.77,1.8 -3.59,12.58 0.2,21.16 3.79,8.58 8,15 11.18,16.17 3.18,1.17 23.36,-5.59 39.73,-7.19 16.37,-1.6 34.14,-14.57 34.14,-14.57 0,0 19.57,-7 23,-18.77 3.43,-11.77 -4.14,-76.46 -4.14,-76.46 0,0 -5.84,-30.1 -22,-21.96 z"
     fill="#ffffff"
     id="path304" />
  <path
     d="m 952.35524,400.37635 c 0,0 -15,-3 -9.78,2 5.22,5 5.19,9.38 11.58,9.18 6.39,-0.2 -1.8,-11.18 -1.8,-11.18 z"
     opacity="0.1"
     id="path306" />
  <path
     d="m 977.70524,507.95635 c 0,0 -6.78,4.59 6.19,15.17 12.97,10.58 -6.19,-15.17 -6.19,-15.17 z"
     opacity="0.1"
     id="path308" />
  <path
     d="m 964.76524,545.68635 c 0,0.6 -2.4,22 6.58,27.35 8.98,5.35 -6.58,-27.35 -6.58,-27.35 z"
     opacity="0.1"
     id="path310" />
  <path
     d="m 822.18524,377.96635 c -7.24,0.25 -22.88,2.46 -14.77,17.59 7.17,13.39 19.22,4.44 26,-2.35 a 25.55,25.55 0 0 0 -11.23,-15.24 z"
     fill="#ffb0b1"
     id="path312" />
  <path
     d="M 834.15524,392.37635 Z"
     fill="#ffb0b1"
     id="path314" />
  <path
     d="m 833.50524,393.08635 0.3,-0.31 z"
     fill="#ffb0b1"
     id="path316" />
  <path
     d="m 950.36524,285.37635 c -7.68,5.25 -14.12,9.68 -15.38,10.6 -3.44,2.55 -10,17.52 -14.23,25.16 -3.37,6.15 -14.32,7.73 -18.45,8.12 l 0.53,-4.57 c 9.39,-4.2 16.58,-17.58 16.58,-17.58 l 18.56,-32.54 6.39,5.81 c 0,0 2.4,2 6,5 z"
     opacity="0.1"
     id="path318" />
  <path
     d="m 950.36524,284.77635 c -7.68,5.25 -14.12,9.68 -15.38,10.61 -3.44,2.54 -10,17.51 -14.23,25.15 -3.37,6.15 -14.32,7.73 -18.45,8.12 l 0.53,-4.57 c 9.39,-4.2 16.58,-17.58 16.58,-17.58 l 18.56,-32.54 6.39,5.79 c 0,0 2.4,1.98 6,5.02 z"
     fill="#dce7ff"
     id="path320" />
  <path
     d="m 935.58524,259.29635 a 29.61,29.61 0 0 1 -5.22,16.81 29.66,29.66 0 1 1 5.22,-16.81 z"
     fill="#ffb0b1"
     id="path322" />
  <path
     d="m 987.34524,359.04635 a 26.36,26.36 0 0 1 -9.57,-10.28 c -1.67,-3.3 -2.78,-7.11 -5.63,-9.45 -2.57,-2.1 -6,-2.61 -9.2,-3.55 -10.52,-3.11 -19.34,-12.71 -19.67,-23.67 -0.16,-5.16 1.45,-10.31 0.72,-15.42 a 17.08,17.08 0 0 0 -3.34,-7.95 27.37,27.37 0 0 0 -2.89,-3.11 c -1.4,-1.32 -2.87,-2.6 -4.15,-4 a 15.53,15.53 0 0 1 -2.1,-2.85 13.71,13.71 0 0 1 -1.15,-2.65 c -2,-6.12 -0.18,-13.38 -2.38,-19.57 l -0.12,-0.34 c -0.83,-2.2 -2.52,-4.4 -4.87,-4.57 -2.35,-0.17 -4.36,1.78 -6.6,2.65 -4.69,1.82 -9.75,-1.28 -13.66,-4.44 -3.91,-3.16 -8.32,-6.77 -13.29,-6.07 -3.29,0.47 -5.89,2.71 -8.92,3.87 a 12.5,12.5 0 0 1 -2.11,0.61 29.65,29.65 0 0 1 57.17,11.05 29.35,29.35 0 0 1 -0.65,6.19 c 0.05,0.14 0.1,0.27 0.16,0.41 1.16,3 2.47,6.08 3.62,8.74 l 5.65,5.12 c 0,0 2.4,2 6,5 7.83,6.6 21.36,18.22 28.34,25.33 6.14,6.28 8.06,30.62 8.64,48.95 z"
     opacity="0.1"
     id="path324" />
  <path
     d="m 880.17524,229.37635 c 1.43,-2.91 2.14,-6.17 3.85,-8.93 2.51,-4 6.89,-6.56 11.39,-8.11 11.75,-4.05 36.58,-9.93 44,0 1.46,2 2.67,4.22 4.69,5.6 1.54,1.05 3.4,1.5 5.09,2.29 4.73,2.22 7.75,7.06 9.36,12 1.61,4.94 2.09,10.24 3.27,15.33 1.51,6.53 4.16,12.72 6.8,18.87 3.11,7.26 6.41,14.79 12.41,19.92 8.19,7 10,16.91 17.6,24.59 8.99996,9.12 8.70996,24.17 4.06996,36.12 -0.61,1.57 -1.3,3.21 -1.06,4.88 0.24,1.67 1.48,3.19 2.65,4.52 l 4.92,5.55 c -11.63996,2.81 -24.80996,-3.27 -30.22996,-13.94 -1.67,-3.3 -2.78,-7.1 -5.64,-9.45 -2.56,-2.1 -6,-2.6 -9.19,-3.54 -10.52,-3.12 -19.34,-12.73 -19.67,-23.69 -0.16,-5.15 1.45,-10.3 0.72,-15.4 a 17,17 0 0 0 -3.35,-8 c -2.75,-3.59 -6.9,-6 -9.14,-10 -3.79,-6.69 -0.91,-15.38 -3.64,-22.56 -0.84,-2.2 -2.52,-4.4 -4.87,-4.57 -2.35,-0.17 -4.36,1.78 -6.61,2.65 -4.68,1.82 -9.74,-1.27 -13.65,-4.44 -3.91,-3.17 -8.32,-6.77 -13.3,-6.06 -3.29,0.46 -5.88,2.7 -8.91,3.87 -2.24,0.86 -6.78,1.63 -8.74,-0.26 -4.14,-3.81 5.45,-13.68 7.18,-17.24 z"
     fill="#591d4b"
     id="path326" />
  <path
     d="m 981.76524,344.76635 c -1.68,-3.3 -2.78,-7.1 -5.64,-9.44 -2.56,-2.1 -6,-2.61 -9.2,-3.55 -10.51,-3.11 -19.33,-12.72 -19.67,-23.68 -0.16,-5.15 1.45,-10.31 0.73,-15.41 a 17.1,17.1 0 0 0 -3.35,-7.95 c -2.76,-3.59 -6.91,-6 -9.14,-10 -3.79,-6.68 -0.91,-15.37 -3.65,-22.56 -0.83,-2.19 -2.52,-4.39 -4.86,-4.57 -2.34,-0.18 -4.37,1.79 -6.61,2.66 -4.68,1.82 -9.75,-1.28 -13.65,-4.44 -3.9,-3.16 -8.33,-6.77 -13.3,-6.07 -3.29,0.47 -5.89,2.71 -8.91,3.87 -2.24,0.86 -6.79,1.64 -8.75,-0.25 -4.12,-4 5.47,-13.85 7.19,-17.39 1.43,-2.92 2.14,-6.17 3.86,-8.93 0.09,-0.15 0.19,-0.3 0.29,-0.45 a 15.88,15.88 0 0 0 -3.29,3.74 c -1.71,2.76 -2.42,6 -3.85,8.93 -1.73,3.54 -11.32,13.42 -7.19,17.39 2,1.9 6.5,1.12 8.74,0.26 3,-1.17 5.62,-3.41 8.91,-3.87 5,-0.71 9.4,2.9 13.3,6.06 3.9,3.16 9,6.26 13.66,4.44 2.24,-0.87 4.2,-2.83 6.6,-2.65 2.4,0.18 4,2.37 4.87,4.57 2.73,7.18 -0.15,15.87 3.64,22.56 2.24,3.93 6.39,6.39 9.14,10 a 17,17 0 0 1 3.35,8 c 0.73,5.1 -0.88,10.25 -0.72,15.4 0.33,11 9.15,20.57 19.67,23.69 3.17,0.94 6.63,1.44 9.19,3.54 2.87,2.35 4,6.15 5.64,9.45 5.42,10.67 18.59,16.75 30.22996,13.94 l -2.32,-2.62 c -10.08996,0.15 -20.29996,-5.59 -24.90996,-14.67 z"
     opacity="0.1"
     id="path328" />
  <path
     d="m 912.82524,299.12635 c -1.31,2 -5.06,12.24 -8.19,21.18 -2.93,-1.14 -5.59,-8.41 -5.59,-8.41 l 15.62,-22.22 c 1.6,2.2 0.55,5.85 -1.84,9.45 z"
     opacity="0.1"
     id="path330" />
  <path
     d="m 913.42524,298.52635 c -1.31,2 -5.06,12.24 -8.19,21.18 -2.93,-1.13 -5.59,-8.41 -5.59,-8.41 l 15.62,-22.21 c 1.6,2.19 0.55,5.85 -1.84,9.44 z"
     fill="#dce7ff"
     id="path332" />
  <path
     d="m 822.60524,400.68635 -8.66,-27.31 a 2.55,2.55 0 0 1 1.66,-3.21 v 0 a 2.56,2.56 0 0 1 3.2,1.66 l 8.66,27.28 -0.86,5.71 z"
     fill="#be8b87"
     id="path334" />
  <path
     d="m 814.76524,370.97635 v 0 a 2.56,2.56 0 0 1 3.21,1.66 l 8.66,27.28 -0.65,4.28 0.63,0.66 0.86,-5.71 -8.71,-27.28 a 2.56,2.56 0 0 0 -3.2,-1.66 v 0 a 2.56,2.56 0 0 0 -1.33,1 3.48,3.48 0 0 1 0.53,-0.23 z"
     fill="#ffffff"
     opacity="0.1"
     id="path336" />
  <polygon
     points="826.75,403.82 826.6,404.85 825.18,403.37 822.6,400.68 827.46,399.14 "
     fill="#efc8c4"
     id="polygon338"
     transform="translate(0.00523657,0.00635364)" />
  <path
     d="m 825.18524,403.37635 a 1,1 0 0 1 0.31,-0.26 0.44,0.44 0 0 1 0.47,0 1.24,1.24 0 0 1 0.17,0.27 0.86,0.86 0 0 0 0.62,0.41 l -0.15,1 z"
     fill="#727a9c"
     id="path340" />
  <path
     d="m 813.89524,383.07635 c 0,0 17.37,-0.1 13.28,7.29 -4.09,7.39 -10.48,8.28 -10.48,8.28 z"
     fill="#ffb0b1"
     id="path342" />
  <path
     d="m 705.86524,51.426354 h -0.75 c -29.84,0 -56.23,15.79 -71.41,39.09 -15.18,-23.3 -41.57,-39.09 -71.41,-39.09 h -0.75 a 85,85 0 0 0 -84.19,84.949996 c 0,27.81 12.18,67.27 35.93,99.74 45.25,61.87 120.42,116 120.42,116 0,0 75.17,-54.12 120.41,-116 23.76,-32.47 35.93,-71.93 35.93,-99.74 a 85,85 0 0 0 -84.18,-84.949996 z m -10.73,189.449996 a 16.85,16.85 0 0 1 -15.67,-10.82 h -17.84 a 5.64,5.64 0 0 1 -5.31,-3.84 l -5.48,-16.51 -17.34,60.59 a 5.61,5.61 0 0 1 -5.38,4.05 h -0.35 a 5.54,5.54 0 0 1 -5.2,-4.64 l -17.87,-107.48 -13.06,63.6 a 5.57,5.57 0 0 1 -5.41,4.23 h -25.13 a 5.59,5.59 0 1 1 0,-11.17 h 20.73 l 18.5,-85.51 a 5.61,5.61 0 0 1 11,0.46 l 18.25,109.64 15.54,-54.21 a 5.5,5.5 0 0 1 5.23,-4 h 0.11 a 5.58,5.58 0 0 1 5.3,3.84 l 9.91,29.81 h 13.58 a 16.76,16.76 0 1 1 15.92,22 z"
     fill="#6c63ff"
     id="path344" />
</svg>
